<svg id="Layer_1" data-name="Layer 1" xmlns="http://www.w3.org/2000/svg" viewBox="0 0 1152.67 1156.07"><defs><style>.cls-1{fill:#fff;}</style></defs><title>IVIIXIO-SVG</title><path class="cls-1" d="M1533.91,955.92c-2.9,666,11.72,567.31-22.64,575.52-47.73,0-93,0-140.21,0-9.46-1.39-27.14,4.27-30-5-5.57-179.38-.06-361.09-2-541.11-.12-199.9.19-401.51-.14-599.91,3.27-5.29,10-9.39,15.39-5.4,4.77.12,9.2-.2,14.37-.07h71.36c116.1,1.8,91-16.12,93.86,65.19Zm-99.35,508h5.1c12.26,0,17.64-5.36,17.65-17.6q0-10.39,0-20.8,0-478.44,0-956.88a17.1,17.1,0,0,1,.2-4.48c2.09-7.65-4.41-16.49-12.49-16.66-5.33-.12-10.66-.05-16,0-7.7.05-15.59,7.94-15.59,15.56q0,488,.06,975.88c0,4.72,0,9.94,1.94,14C1419.37,1461.38,1426,1466.43,1434.56,1463.93Z" transform="translate(-381.93 -378.16)"/><path class="cls-1" d="M1054.36,1072.15c0,137.4,0,275.49,0,413-.85,13.94,1.8,28.1-1.26,42.25-3.53,7-15.1,3.26-22.43,3.84a318.41,318.41,0,0,0-34,.49c-22.42,2.58-15.29-11.81-14.7-24.7,1.78-1081.84-5.81-900.78,10.13-942.24-13.71-22.46-9.15-43.38-10-64.52-.44-37.91.66-75.42-.63-113.12.2-11.12,13.73-8.93,21.76-8.42,10.37.5,20.12,1,30.53,1,8.13-1.16,23.23.17,20.91,10.22-1,41.21,0,80-.26,120.47,2.42,19,26.72,17.19,39.84,12,9.55-4.85,2.38-16.77,4.09-25.93.81-37.21-1.77-74.43,1.15-110.33,8.56-12.24,13.89-4.55,21.85-5.71,16-.6,32.27-.75,47.46-.41,9.54,8.15,5.33,23.17,6.16,34.78,0,18.85,0,37.16,0,56-1.4,25.14,4.36,81.9-8.51,92.63-9.75,9,10.65,3.88,8.55,41.43-.89,309.38,1.12,611.05-.84,920.74-2.06,8.54-13.71,5.66-21.9,6.1-9.53.06-18.29.47-27.9.62-27.08,1.93-26-6.34-26-27.18-.85-40,.45-78.57,1.63-118.41-3.15-126.35-1.11-252.41-1.61-378.93-1.48-35.26,3.68-70.4.39-105.45,2.37-63.31,1-126,.34-189.23-3-121.22,8.34-118.36-25-117.76-24.9-10-18.72,50.25-19.56,59.32,0,27.91-.07,55.12-.1,83.05Q1054.27,905.06,1054.36,1072.15Z" transform="translate(-381.93 -378.16)"/><path class="cls-1" d="M502.81,929.48V441.75c1.48-64.26-9.09-63.13,28.31-61.63,11.23,0,21.78,0,33.09-.46,10-2.45,12.21,2.78,12.84,18.57,2.27,1107.09-6,1050.11,9.07,1063.33,28.14,8.58,37-3.11,35-27.38,4.38-258.8,1.22-516.88,2.11-775.57-1.34-90,2.55-180-1.55-269.55,0-2.23,1.59-4.36,4-6.82,3.63-4.86,6.81-3.79,12.75-3.56,8.84.79,15.58,1.48,24.72,1.35,13.13,1,33.45-4.9,34.37,11.51-.07,360,.55,721-.66,1080.33-1.4,13.88-7.67,17.83-18.93,24.37-8.94,11.21-18.82,19.83-29.4,28.93-11,9.28-26.84,5.37-40,6.42-16.85-.5-33.57,1.46-49.63-1.76-7.83-2.12-11.55-9.17-17.66-13.93-17.26-11.36-35.09-25-37.81-44.88C501.91,1290.67,503.26,1110,502.81,929.48Z" transform="translate(-381.93 -378.16)"/><path class="cls-1" d="M382.29,1034.54q0-243.19.11-486.38a73.52,73.52,0,0,1,2.53-18.78c1.31-4.92,5.65-4,10.14-3.8,16.48.6,33,.23,49.48.24,8.73,0,12.3,3.5,12.32,12q1,490.14,2.25,980.26c0,7.54-4.47,10.6-9,14.12-1.17.91-4.1-.74-6.23-.75-15.49-.08-31-.16-46.48,0-3.93.06-8.31,3.71-11.23-1.71-1.53-2.84-3.71-5.92-3.71-8.89Q382.18,1277.72,382.29,1034.54Z" transform="translate(-381.93 -378.16)"/><path class="cls-1" d="M807.28,1531.43c-17.16.73-34.13-1.67-51.34,1.26-3.06.41-3.93.72-7-.79-3.53-2.6-8.85-4.53-8.49-8.73,2.31-24.28.29-49.83.93-74.58.06-299.63,0-595.85.16-894.74.54-37.31,6.61-26.53,34.26-28.06,33.16.8,36.95-5.85,41,21.16-5.26,1079,6.79,963.6-8.43,987.28C808.05,1533.3,807.66,1532.37,807.28,1531.43Z" transform="translate(-381.93 -378.16)"/><path class="cls-1" d="M1293.05,1027q0,245,0,489.93c0,3.5,1.34,7.91-.3,10.27-2.33,3.37-5.28,9.31-11.61,4.64-.8-.58-2.27-.36-3.42-.36-13.83,0-27.68-.39-41.49.17-4.81.19-9.71,2.67-12.85-2.83-1.9-3.33-4.42-7.06-4.42-10.62q-.3-484.92-.1-969.85c0-5.65.52-11.61,2.46-16.81,1-2.62,5.65-5.37,8.73-5.46,17.81-.51,35.65-.27,53.48-.24,6.44,0,9.56,3,9.56,9.74q-.09,208.21,0,416.44Z" transform="translate(-381.93 -378.16)"/><path class="cls-1" d="M861.82,1031.06V541.19c0-3.27-1.05-7.19.38-9.64,1.53-2.63,5.37-5.39,8.29-5.48,17.14-.5,34.31-.23,51.47-.25,10.48,0,12.06,1.7,12.08,13.14l2.07,981.15c0,9.62-4,11.92-13.16,11.67-17.52-.49-35.09.93-52.62.57-2.89-.06-6.18-4.82-8.3-8-1.15-1.75-.21-4.87-.21-7.37Z" transform="translate(-381.93 -378.16)"/><path class="cls-1" d="M458.91,413.66c.63,31.7,2,34.54-28.35,34.33-17.35-.9-43.77,7-47.71-9.19a325.19,325.19,0,0,1,.14-50.62c3.33-2.91,5.66-11.11,9.28-9.41C436.27,386.81,463.76,359,458.91,413.66Z" transform="translate(-381.93 -378.16)"/><path class="cls-1" d="M742.07,413.74c-.66-17.86-8.64-37.31,16.16-33.78,17,1,32.33-.45,49.87-.19,8.2,2.31,9.63,7.34,7.78,15.51.35,12.49,1.09,25.7,1.47,38.74-.6,6.22-6.15,15.06-10.41,13.9-19.83-1.21-34.39-1.78-55,.49-6.86-.55-9.63-6.4-11.71-10.09,2.38-8.65.76-16.27,1.18-24.53Z" transform="translate(-381.93 -378.16)"/><path class="cls-1" d="M1218.78,412.77c.36-15.7-3.91-35,16.43-34.6,17.91.45,34.62,2.39,52.46.86,2.47,1.74,4.49,5.58,6.19,7.09-1.12,5-.69,9.88-.81,15-1.49,17.1,4.22,43-5.43,45.6C1219.84,450.43,1216.66,454.46,1218.78,412.77Z" transform="translate(-381.93 -378.16)"/><path class="cls-1" d="M936.12,413.05c-1.7,11.73,3.49,24.4-3.63,30.91-1.89,1.51-2.46,4.64-4.07,4.44-9.85-1.92-18-.63-27.12-1.2-43.48.6-42.76,5.26-40.31-35.86,1.16-9.39-1.15-19.19,2.59-27.92,6.74-7.86,36.67-1.29,43.67-3.25C944.87,377.13,934.55,384.75,936.12,413.05Z" transform="translate(-381.93 -378.16)"/></svg>